<svg width="114" height="96" viewBox="0 0 114 96" fill="none" xmlns="http://www.w3.org/2000/svg">
<path id="Vector" d="M76.9262 64.997L101.815 95.8949H72.9551L56.7882 75.8257L40.6214 95.8949H11.7669L36.6555 64.997C41.5684 58.8961 48.9716 55.3529 56.7935 55.3529C64.6153 55.3529 72.0186 58.8961 76.9314 64.997H76.9262ZM62.9725 44.6238C66.886 51.4114 73.651 56.0605 81.3786 57.2712L113.32 62.282V39.5239L80.6723 34.3874L93.7262 0.501953H69.6537L61.2459 22.327C58.4311 29.6387 59.0642 37.831 62.9777 44.6186L62.9725 44.6238ZM52.3358 22.327L43.928 0.501953H19.8556L32.9042 34.3874L0.261719 39.5239V62.282L32.2031 57.2712C39.9307 56.0605 46.6957 51.4114 50.6093 44.6238C54.5228 37.8362 55.1559 29.644 52.341 22.3323L52.3358 22.327Z" fill="#F82900"/>
</svg>
